<svg xmlns="http://www.w3.org/2000/svg" width="500" height="500" style="width:100%;height:100%;content-visibility:visible"><defs><clipPath id="b"><path d="M0 0h500v500H0z"/></clipPath><filter id="a" filterUnits="objectBoundingBox" x="0%" y="0%" width="100%" height="100%"><feComponentTransfer in="SourceGraphic"><feFuncA type="table" tableValues="1.0 0.0"/></feComponentTransfer></filter><mask id="c"><g filter="url(#a)"><g display="block"><path fill="red" d="M311.5 470l-106.81-.19-.02-141.48c41-4.22 74.95 16.93 74.95 16.93M265.16 470l-.04-124.67 41.75-.07s33.95-21.15 74.95-16.93l.02 141.48"/></g></g></mask></defs><g clip-path="url(#b)"><path stroke-linecap="round" stroke-linejoin="round" stroke="#08A88A" stroke-width="11.97" d="M350.78 119.89a45.546 45.546 0 001.403-11.25c0-25.099-20.347-45.446-45.446-45.446-25.099 0-45.446 20.347-45.446 45.446 0 0 0 0 0 0 0 3.129.316 6.184.918 9.134" fill="none" display="block"/><g display="block"><path stroke-linecap="round" stroke-linejoin="round" stroke="#121331" stroke-width="11.97" d="M253.441 274.542c.331 3.758 2.085 7.57 4.759 11.282 20.543 28.537 74.474 28.537 95.027 0 2.683-3.712 4.437-7.524 4.768-11.282" fill="none"/><path stroke-linecap="round" stroke-linejoin="round" stroke="#121331" stroke-width="11.97" d="M209.962 299.533c13.982-16.119 34.614-26.314 57.628-26.314h7.01v-17.677m62.246-.009v17.686h-.028 7.028c42.116 0 76.257 34.141 76.257 76.257v25.505c0 7.001-5.246 12.89-12.201 13.689" fill="none"/></g><g display="block"><path stroke-linecap="round" stroke-linejoin="round" stroke="#121331" stroke-width="11.97" d="M249.58 171.99l1.4 40.38c.52 14.75 6.82 27.96 16.69 37.49 2.15 2.08 4.47 3.98 6.93 5.68 8.85 6.12 19.58 9.69 31.12 9.69 11.55 0 22.28-3.58 31.13-9.7 13.77-9.53 22.98-25.21 23.6-43.16l1.4-40.38" fill="none"/><path stroke-linecap="round" stroke-linejoin="round" stroke="#08A88A" stroke-width="11.97" d="M366.009 159.842l.022 12.144h-23.728l-10.016-29.87-20.994 29.87h-65.888l.022-12.144c.049-26.985 17.421-49.274 43.281-56.985a59.259 59.259 0 0117.01-2.487c6.104 0 11.779.927 17.01 2.487 25.86 7.711 43.232 30 43.281 56.985z" fill="none"/></g><g display="block"><path stroke-linecap="round" stroke-linejoin="round" stroke="#121331" stroke-width="11.97" d="M180.645 407.756c-3.534.329-7.079.494-10.625.494-14.91 0-29.82-2.91-43.86-8.75l-.14-.06a66.16 66.16 0 00-17.86-4.65l-20.42-2.35c-5.62-.65-9.86-5.4-9.86-11.05v-20.6c0-34.01 27.57-61.57 61.58-61.57h5.67m50.24 0h5.66c24.368 0 45.429 14.148 55.413 34.68" fill="none"/><path stroke-linecap="round" stroke-linejoin="round" stroke="#121331" stroke-width="11.97" d="M195.38 284.938v14.051c0 13.821-11.313 25.127-25.134 25.127s-25.127-11.306-25.127-25.127v-14.043M124.96 218.86l1.09 31.23c.41 11.91 5.51 22.57 13.47 30.27 1.74 1.68 3.61 3.21 5.6 4.59h.01a44.048 44.048 0 0025.12 7.82c9.32 0 17.98-2.89 25.13-7.83 11.11-7.69 18.55-20.35 19.06-34.85l.94-26.93v-.01" fill="none"/><path stroke-linecap="round" stroke-linejoin="round" stroke="#08A88A" stroke-width="11.97" d="M125.03 220.62c28.992-1.209 52.137-11.083 62.931-36.425 24.323 17.33 27.416 38.97 27.416 38.97l1.899-22.912c1.439-17.356-12.164-42.158-47.031-42.158-34.496 0-48.414 24.821-46.901 42.191l1.765 20.251" fill="none"/></g><g display="block"><path stroke-linecap="round" stroke-linejoin="round" stroke="#08A88A" stroke-width="11.97" d="M204.669 436.81V328.333c40.998-4.218 74.95 16.928 74.95 16.928v91.549M306.869 436.81v-91.549s33.952-21.146 74.95-16.928V436.81" fill="none"/><path fill="#FFF" d="M306.869 345.262h-27.25"/><path stroke-linecap="round" stroke-linejoin="round" stroke="#08A88A" stroke-width="11.97" d="M306.869 345.262h-27.25" fill="none"/></g></g></svg>