<svg xmlns="http://www.w3.org/2000/svg" width="500" height="500" style="width:100%;height:100%;content-visibility:visible"><defs><clipPath id="a"><path d="M0 0h500v500H0z"/></clipPath></defs><g clip-path="url(#a)"><g display="block"><g fill="none"><path stroke-linecap="round" stroke-linejoin="round" stroke-dasharray="166" stroke="#08A88A" stroke-width="12.6" d="M157.143 343.37c0-23.237 18.838-42.075 42.075-42.075m16.924-55.778c-7.249 16.685-26.652 24.335-43.337 17.086m76.643-37.928c-8.595 12.722-23.151 21.087-39.66 21.087-21.552 0-39.774-14.256-45.753-33.852m197.692-57.857a41.97 41.97 0 00-14.939-2.729c-23.237 0-42.074 18.838-42.074 42.075m37.918 149.971c0-23.237-18.837-42.075-42.074-42.075m-2.815 26.041c-26.415 0-47.829 21.413-47.829 47.828 0 26.415 21.414 47.828 47.829 47.828 19.171 0 35.698-11.284 43.326-27.568a44.28 44.28 0 003.908.183c24.237 0 43.885-19.648 43.885-43.885 0-4.426-.661-8.697-1.88-12.726C397.143 333.218 404 322.302 404 309.777c0-11.295-5.58-21.282-14.127-27.373 6.843-7.483 11.019-17.444 11.019-28.383 0-15.177-8.038-28.473-20.086-35.874a41.872 41.872 0 008.056-24.748c0-17.976-11.276-33.311-27.138-39.337.133-1.288.201-2.595.201-3.919 0-20.898-16.94-37.839-37.838-37.839-.073 0-.144.006-.217.006-2.016-18.999-17.161-33.802-36.695-33.802-20.898 0-37.29 16.941-37.29 37.839m109.048 179.748c12.271 0 23.314-5.253 31.005-13.632"/><path stroke-linecap="round" stroke-linejoin="round" stroke="#08A88A" stroke-width="12.6" d="M157.143 343.37c0-23.237 18.838-42.075 42.075-42.075m16.924-55.778c-7.249 16.685-26.652 24.335-43.337 17.086m76.643-37.928c-8.595 12.722-23.151 21.087-39.66 21.087-21.552 0-39.774-14.256-45.753-33.852m197.692-57.857a41.97 41.97 0 00-14.939-2.729c-23.237 0-42.074 18.838-42.074 42.075m37.918 149.971c0-23.237-18.837-42.075-42.074-42.075m-2.815 26.041c-26.415 0-47.829 21.413-47.829 47.828 0 26.415 21.414 47.828 47.829 47.828 19.171 0 35.698-11.284 43.326-27.568a44.28 44.28 0 003.908.183c24.237 0 43.885-19.648 43.885-43.885 0-4.426-.661-8.697-1.88-12.726C397.143 333.218 404 322.302 404 309.777c0-11.295-5.58-21.282-14.127-27.373 6.843-7.483 11.019-17.444 11.019-28.383 0-15.177-8.038-28.473-20.086-35.874a41.872 41.872 0 008.056-24.748c0-17.976-11.276-33.311-27.138-39.337.133-1.288.201-2.595.201-3.919 0-20.898-16.94-37.839-37.838-37.839-.073 0-.144.006-.217.006-2.016-18.999-17.161-33.802-36.695-33.802-20.898 0-37.29 16.941-37.29 37.839m109.048 179.748c12.271 0 23.314-5.253 31.005-13.632"/><path d="M157.143 343.37c0-23.237 18.838-42.075 42.075-42.075m16.924-55.778c-7.249 16.685-26.652 24.335-43.337 17.086m76.643-37.928c-8.595 12.722-23.151 21.087-39.66 21.087-21.552 0-39.774-14.256-45.753-33.852m197.692-57.857a41.97 41.97 0 00-14.939-2.729c-23.237 0-42.074 18.838-42.074 42.075m37.918 149.971c0-23.237-18.837-42.075-42.074-42.075m-2.815 26.041c-26.415 0-47.829 21.413-47.829 47.828 0 26.415 21.414 47.828 47.829 47.828 19.171 0 35.698-11.284 43.326-27.568a44.28 44.28 0 003.908.183c24.237 0 43.885-19.648 43.885-43.885 0-4.426-.661-8.697-1.88-12.726C397.143 333.218 404 322.302 404 309.777c0-11.295-5.58-21.282-14.127-27.373 6.843-7.483 11.019-17.444 11.019-28.383 0-15.177-8.038-28.473-20.086-35.874a41.872 41.872 0 008.056-24.748c0-17.976-11.276-33.311-27.138-39.337.133-1.288.201-2.595.201-3.919 0-20.898-16.94-37.839-37.838-37.839-.073 0-.144.006-.217.006-2.016-18.999-17.161-33.802-36.695-33.802-20.898 0-37.29 16.941-37.29 37.839m109.048 179.748c12.271 0 23.314-5.253 31.005-13.632"/></g><path stroke-linecap="round" stroke-linejoin="round" stroke="#121331" stroke-width="12.6" d="M250.327 224.675c8.595 12.722 23.151 21.087 39.66 21.087 21.552 0 39.775-14.256 45.754-33.852M202.033 327.336c26.415 0 47.828 21.413 47.828 47.828 0 26.415-21.413 47.828-47.828 47.828-19.171 0-35.699-11.284-43.327-27.568a44.28 44.28 0 01-3.908.183c-24.237 0-43.885-19.648-43.885-43.885 0-4.426.662-8.697 1.881-12.726-10.161-5.778-17.019-16.694-17.019-29.219 0-11.295 5.58-21.282 14.127-27.373-6.843-7.483-11.019-17.444-11.019-28.383 0-15.177 8.038-28.473 20.086-35.874a41.872 41.872 0 01-8.056-24.748c0-17.976 11.277-33.311 27.139-39.337a38.137 38.137 0 01-.202-3.919c0-20.898 16.941-37.839 37.839-37.839.073 0 .144.006.217.006 2.016-18.999 17.161-33.802 36.695-33.802 20.898 0 37.29 16.941 37.29 37.839v260.785M138.048 154.053a41.97 41.97 0 0114.939-2.729c23.237 0 42.075 18.838 42.075 42.075m-54.219 102.696c-12.27 0-23.315-5.253-31.006-13.632m119.848-152.526a20.12 20.12 0 0112.71 4.498c4.572 3.704 7.496 9.365 7.496 15.708m33.743 95.374c7.249 16.685 26.651 24.335 43.336 17.086m-56.879-132.666a20.122 20.122 0 00-12.711 4.498c-4.572 3.704-7.495 9.365-7.495 15.708" fill="none"/></g></g></svg>