<svg xmlns="http://www.w3.org/2000/svg" width="500" height="500" style="width:100%;height:100%;content-visibility:visible"><defs><clipPath id="a"><path d="M0 0h500v500H0z"/></clipPath></defs><g clip-path="url(#a)"><path stroke-linecap="round" stroke-linejoin="round" stroke="#121331" stroke-width="11.0697552" d="M352.55 372.91c-56.637 56.638-148.463 56.638-205.1 0-56.637-56.636-56.637-148.462 0-205.099s148.463-56.637 205.1 0 56.637 148.463 0 205.1z" fill="none" display="block"/><path stroke-linecap="round" stroke-linejoin="round" stroke="#121331" stroke-width="11.069688" d="M250 125.332v20.983M147.448 167.812l14.836 14.836M104.975 270.36h20.983M147.448 372.913l14.836-14.839M250 415.386v-20.983M352.552 372.913l-14.836-14.839M395.025 270.36h-20.983M352.552 167.812l-14.836 14.836" fill="none" display="block"/><path stroke-linecap="round" stroke-linejoin="round" stroke="#08A88A" stroke-width="11.0697552" d="M250 173.11l-15.366 96.917c-.9 9.086 6.237 16.96 15.366 16.96 0 0 0 0 0 0 9.13 0 16.265-7.874 15.366-16.96L250 173.11z" fill="none" display="block"/><path stroke-linecap="round" stroke-linejoin="round" stroke="#121331" stroke-width="11.0697552" d="M296.525 102.697h-92.267V81.43h92.267v21.267zM273.272 102.7h-45.765v22.633h45.765v-22.634zM352.676 167.684l8.688-8.684" fill="none" display="block"/><g display="block"><path stroke-linecap="round" stroke-linejoin="round" stroke="#121331" stroke-width="11.0697552" d="M374.343 164.246l-18.74-18.74-8.609 8.606 18.74 18.74 8.609-8.606z" fill="none"/><path fill="#121331" d="M374.343 164.246l-18.74-18.74-8.609 8.606 18.74 18.74 8.609-8.606z"/></g></g></svg>