<svg xmlns="http://www.w3.org/2000/svg" width="500" height="500" style="width:100%;height:100%;content-visibility:visible"><defs><clipPath id="b"><path d="M0 0h500v500H0z"/></clipPath><clipPath id="d"><path d="M0 0h500v500H0z"/></clipPath><filter id="a" filterUnits="objectBoundingBox" x="0%" y="0%" width="100%" height="100%"><feComponentTransfer in="SourceGraphic"><feFuncA type="table" tableValues="1.0 0.0"/></feComponentTransfer></filter><mask id="c"><g filter="url(#a)"><path fill="red" d="M34.663-13.18C29.536-25.199 17.614-33.625 3.722-33.625c-12.984 0-24.241 7.364-29.844 18.139A10.43 10.43 0 00-29.354-16c-5.779 0-10.463 4.685-10.463 10.464 0 .774.09 1.526.249 2.252-6.227 3.278-10.479 9.802-10.479 17.328 0 10.814 8.767 19.581 19.581 19.581h56.271c13.388 0 24.242-10.853 24.242-24.241 0-10.261-6.379-19.026-15.384-22.564z" transform="translate(202 277.584) scale(2.555)" display="block"/></g></mask></defs><g clip-path="url(#b)"><g mask="url(#c)" display="block"><g clip-path="url(#d)"><path stroke-linecap="round" stroke-linejoin="round" stroke="#08A88A" stroke-width="12.04" d="M224.901 231.066c0 41.937 33.997 75.934 75.934 75.934s75.934-33.997 75.934-75.934-33.997-75.934-75.934-75.934-75.934 33.997-75.934 75.934zM376.693 306.924l23.955 23.955M408.114 231.066h33.878M376.693 155.208l23.955-23.955M300.835 123.787V89.909M224.977 155.208l-23.955-23.955" fill="none" display="block"/></g></g><path stroke-linecap="round" stroke-linejoin="round" stroke="#121331" stroke-width="11.62525" d="M152.188 254.41c-3.723-10.314-13.572-17.706-25.17-17.706m163.35 6.612c4.57 10.499 7.105 22.086 7.105 34.268 0 0 .028 9.073-3.12 20.207" fill="none" display="block"/><path stroke-linecap="round" stroke-linejoin="round" stroke="#121331" stroke-width="11.62525" d="M290.564 243.91c-13.1-30.71-43.56-52.238-79.054-52.238-33.174 0-61.936 18.815-76.252 46.345a26.65 26.65 0 00-8.257-1.313c-14.766 0-26.733 11.97-26.733 26.736 0 1.977.23 3.898.636 5.753-15.91 8.376-26.774 25.044-26.774 44.273 0 27.63 22.4 50.03 50.03 50.03h143.772c34.206 0 61.938-27.73 61.938-61.936 0-26.217-16.298-48.611-39.306-57.65z" fill="none" display="block"/></g></svg>