<svg xmlns="http://www.w3.org/2000/svg" width="500" height="500" style="width:100%;height:100%;content-visibility:visible"><defs><clipPath id="a"><path d="M0 0h500v500H0z"/></clipPath></defs><g display="block" clip-path="url(#a)"><path stroke-linecap="round" stroke-linejoin="round" stroke="#08A88A" stroke-width="12.04" d="M250 410.119V89.881M89.881 250h320.238m-273.34-113.221l226.442 226.442m-226.442 0l226.442-226.442M250 129.911l-40.03-40.03m40.03 40.03l40.03-40.03m44.672 75.417v-56.611m0 56.611h56.611m-226.015 0v-56.611m0 56.611h-56.611m56.611 169.407v56.611m0-56.611h-56.611m226.015 0v56.611m0-56.611h56.611M250 193.204l-40.03-40.03m40.03 40.03l40.03-40.03M306.692 250l40.03-40.03M306.692 250l40.03 40.03M193.607 250l-40.03 40.03m40.03-40.03l-40.03-40.03m136.453 0v-56.61m0 56.61h56.61m-136.67 0h-56.611m56.611 0v-56.61M250 306.611l40.03 40.03M250 306.611l-40.03 40.03m0-56.611v56.611m0-56.611h-56.611m136.671 0h56.61m-56.61 0v56.611M250 370.09l40.03 40.029M250 370.09l-40.03 40.029M129.911 250l-40.03 40.03m40.03-40.03l-40.03-40.03M370.318 250l40.03-40.03M370.318 250l40.03 40.03" fill="none"/></g></svg>